<svg xmlns="http://www.w3.org/2000/svg" viewBox="0 0 87.47 87.28"><title>Asset 4</title><g id="Layer_2" data-name="Layer 2"><g id="Layer_1-2" data-name="Layer 1"><path d="M57.92,75.87a37.1,37.1,0,0,1-13.18,4.26,35.45,35.45,0,0,1-13.92-1.26A45,45,0,0,1,7.74,63.31,36.87,36.87,0,0,1,1.37,50.59,39.45,39.45,0,0,1,.18,36.37,40.43,40.43,0,0,1,38.41,0,41.29,41.29,0,0,1,52.55,1.87,40.06,40.06,0,0,1,79.68,32.16a41.29,41.29,0,0,1,.21,14A30.49,30.49,0,0,1,75,59.07a25.22,25.22,0,0,0,2.73-6.31A36.79,36.79,0,0,0,79.11,46a40.36,40.36,0,0,0-.86-13.56,38.76,38.76,0,0,0-14.56-22.1,39.25,39.25,0,0,0-11.91-6A38.43,38.43,0,0,0,25.66,5.94,38,38,0,0,0,3,36.66,36.63,36.63,0,0,0,3.9,49.9a35.77,35.77,0,0,0,5.71,12,41.35,41.35,0,0,0,9.58,9.41,45.3,45.3,0,0,0,12.06,6.14,34.37,34.37,0,0,0,13.41,1.88,37.93,37.93,0,0,0,6.76-1.16A38.71,38.71,0,0,0,57.92,75.87Z"/><path d="M64.36,57.88a4.23,4.23,0,0,1,.52,2.29A3.65,3.65,0,0,1,64,62.38a3.44,3.44,0,0,1-2.11,1.15,3.83,3.83,0,0,1-2.39-.46l.24,0L57.4,65.58v-.36L67.58,75.7l10.1,10.54H77l2.25-2.38v.68a4.63,4.63,0,0,1-1.29-3,4.28,4.28,0,0,1,1-3.08,3.84,3.84,0,0,1,3-1.26,4.3,4.3,0,0,1,2.93,1.38h-.66l2.26-2.37v.62c-3.35-3.53-6.66-7.1-10-10.67S70,59,66.68,55.43h.12Zm0,0,2.32-2.57.06-.06.06.06c3.43,3.47,6.85,6.93,10.23,10.43s6.79,7,10.15,10.5l.29.31-.29.31-2.25,2.38-.33.35-.33-.35A3.44,3.44,0,0,0,82,78.17a2.88,2.88,0,0,0-2.26,1,3.23,3.23,0,0,0-.78,2.38,3.76,3.76,0,0,0,1,2.34l.32.35-.32.33-2.27,2.37-.35.37L77,86.91,67,76.28,57,65.58l-.18-.19.18-.17,2.42-2.47.11-.11.14.08a3.46,3.46,0,0,0,2.15.5,3.19,3.19,0,0,0,2-1A3.92,3.92,0,0,0,64.36,57.88Z"/><path d="M77.61,81.17a4.23,4.23,0,0,1-.52-2.29A3.65,3.65,0,0,1,78,76.67a3.44,3.44,0,0,1,2.11-1.15,3.83,3.83,0,0,1,2.39.46l-.24,0,2.34-2.55v.36L74.39,63.35,64.29,52.81H65l-2.25,2.38v-.68a4.63,4.63,0,0,1,1.29,3A4.28,4.28,0,0,1,63,60.56a3.84,3.84,0,0,1-3,1.26A4.3,4.3,0,0,1,57,60.44h.66l-2.26,2.37v-.62c3.35,3.53,6.66,7.1,10,10.67S72,80,75.29,83.62h-.12Zm0,0-2.32,2.56-.06.07-.06-.07c-3.43-3.46-6.85-6.92-10.23-10.42s-6.79-7-10.15-10.5l-.29-.31.29-.31L57,59.81l.33-.35.33.35A3.37,3.37,0,0,0,60,60.87a2.84,2.84,0,0,0,2.26-1A3.23,3.23,0,0,0,63,57.53a3.76,3.76,0,0,0-1-2.34l-.32-.35.32-.33,2.27-2.37.35-.37.35.37L75,62.77l9.94,10.7.18.19-.18.17-2.42,2.46-.11.12-.14-.08a3.46,3.46,0,0,0-2.15-.5,3.19,3.19,0,0,0-2,1A3.92,3.92,0,0,0,77.61,81.17Z"/><path d="M64.36,57.19a4.23,4.23,0,0,1,.52,2.29A3.65,3.65,0,0,1,64,61.69a3.44,3.44,0,0,1-2.11,1.15,3.83,3.83,0,0,1-2.39-.46l.24,0L57.4,64.89v-.36L67.58,75l10.1,10.55H77l2.25-2.38v.68a4.63,4.63,0,0,1-1.29-3,4.28,4.28,0,0,1,1-3.08,3.84,3.84,0,0,1,3-1.26,4.3,4.3,0,0,1,2.93,1.38h-.66l2.26-2.37v.62c-3.35-3.53-6.66-7.1-10-10.67S70,58.34,66.68,54.74h.12Zm0,0,2.32-2.57.06-.06.06.06c3.43,3.47,6.85,6.93,10.23,10.43s6.79,7,10.15,10.5l.29.31-.29.31-2.25,2.38-.33.35-.33-.35A3.44,3.44,0,0,0,82,77.48a2.88,2.88,0,0,0-2.26,1,3.23,3.23,0,0,0-.78,2.38,3.76,3.76,0,0,0,1,2.34l.32.35-.32.33-2.27,2.37-.35.37L77,86.22,67,75.59,57,64.89l-.18-.19.18-.17,2.42-2.47.11-.11.14.08a3.46,3.46,0,0,0,2.15.5,3.19,3.19,0,0,0,2-1A3.92,3.92,0,0,0,64.36,57.19Z"/></g></g></svg>